# xmcd
#
# Track frame offsets: 
#        150
#        9535
#        22878
#        35564
#        44400
#        61066
#        72408
#        85977
#        94498
#        105917
#        124845
#        138057
#        149733
#        158572
#
# Disc length: 2338 seconds
#
# Revision: 0
# Processed by: cddbd v1.5.2PL0 Copyright (c) Steve Scherf et al.
# Submitted via: ExactAudioCopyFreeDBPlugin 1.0
#
DISCID=b809200e
DTITLE=Mr. Q - Cocktail Boogie
DYEAR=2012
DGENRE=Blues
TTITLE0=Cocktail Boogie
TTITLE1=Georgia
TTITLE2=We Three
TTITLE3=Mr. Q's Blues
TTITLE4=San Francisco
TTITLE5=Every Day I Have The Blues
TTITLE6=You'll Never Know
TTITLE7=Mood Indigo
TTITLE8=What I Say
TTITLE9=Juice Headed Woman
TTITLE10=Earl Hines Tune
TTITLE11=Thank-You Pretty Baby
TTITLE12=Begin The Beguine
TTITLE13=Don't Take Your Love From Me
EXTD=
EXTT0=
EXTT1=
EXTT2=
EXTT3=
EXTT4=
EXTT5=
EXTT6=
EXTT7=
EXTT8=
EXTT9=
EXTT10=
EXTT11=
EXTT12=
EXTT13=
PLAYORDER=
